HIERARCHY
ROOT Hips
{
 OFFSET 0.000000 0.000000 0.000000
 CHANNELS 6 Xposition Yposition Zposition Yrotation Xrotation Zrotation
 JOINT Chest
 {
  OFFSET 0.000000 11.815222 -1.312803
  CHANNELS 3 Yrotation Xrotation Zrotation
  JOINT Chest2
  {
   OFFSET 0.000000 10.795478 0.000000
   CHANNELS 3 Yrotation Xrotation Zrotation
   JOINT Chest3
   {
    OFFSET 0.000000 9.863942 0.000000
    CHANNELS 3 Yrotation Xrotation Zrotation
    JOINT Chest4
    {
     OFFSET 0.000000 9.852922 0.000000
     CHANNELS 3 Yrotation Xrotation Zrotation
     JOINT Neck
     {
      OFFSET 0.000000 14.257742 0.000000
      CHANNELS 3 Yrotation Xrotation Zrotation
      JOINT Head
      {
       OFFSET 0.000000 10.572167 0.000000
       CHANNELS 3 Yrotation Xrotation Zrotation
       End Site
       {
        OFFSET 0.000000 20.709031 0.000000
       }
      }
     }
     JOINT RightCollar
     {
      OFFSET -3.101757 7.992193 0.000000
      CHANNELS 3 Yrotation Xrotation Zrotation
      JOINT RightShoulder
      {
       OFFSET -17.799824 0.000000 0.000000
       CHANNELS 3 Yrotation Xrotation Zrotation
       JOINT RightElbow
       {
        OFFSET -28.644581 0.000000 0.000000
        CHANNELS 3 Yrotation Xrotation Zrotation
        JOINT RightWrist
        {
         OFFSET -26.037363 0.000000 0.000000
         CHANNELS 3 Yrotation Xrotation Zrotation
         JOINT Prop1
         {
          OFFSET -9.626271 -1.069586 2.139171
          CHANNELS 3 Yrotation Xrotation Zrotation
          End Site
          {
           OFFSET 0.000000 0.000000 52.756942
          }
         }
         End Site
         {
          OFFSET -19.573417 0.000000 0.000000
         }
        }
       }
      }
     }
     JOINT LeftCollar
     {
      OFFSET 3.101757 7.992193 0.000000
      CHANNELS 3 Yrotation Xrotation Zrotation
      JOINT LeftShoulder
      {
       OFFSET 17.799824 0.000000 0.000000
       CHANNELS 3 Yrotation Xrotation Zrotation
       JOINT LeftElbow
       {
        OFFSET 28.644581 0.000000 0.000000
        CHANNELS 3 Yrotation Xrotation Zrotation
        JOINT LeftWrist
        {
         OFFSET 26.037363 0.000000 0.000000
         CHANNELS 3 Yrotation Xrotation Zrotation
         End Site
         {
          OFFSET 19.573417 0.000000 0.000000
         }
        }
       }
      }
     }
    }
   }
  }
 }
 JOINT RightHip
 {
  OFFSET -9.714347 0.000000 0.000000
  CHANNELS 3 Yrotation Xrotation Zrotation
  JOINT RightKnee
  {
   OFFSET 0.000000 -51.506785 0.000000
   CHANNELS 3 Yrotation Xrotation Zrotation
   JOINT RightAnkle
   {
    OFFSET 0.000000 -41.779996 0.000000
    CHANNELS 3 Yrotation Xrotation Zrotation
    JOINT RightToe
    {
     OFFSET 0.000000 -6.787769 15.350800
     CHANNELS 3 Yrotation Xrotation Zrotation
     End Site
     {
      OFFSET 0.000000 -1.827230 7.796180
     }
    }
   }
  }
 }
 JOINT LeftHip
 {
  OFFSET 9.714347 0.000000 0.000000
  CHANNELS 3 Yrotation Xrotation Zrotation
  JOINT LeftKnee
  {
   OFFSET 0.000000 -51.506785 0.000000
   CHANNELS 3 Yrotation Xrotation Zrotation
   JOINT LeftAnkle
   {
    OFFSET 0.000000 -41.779996 0.000000
    CHANNELS 3 Yrotation Xrotation Zrotation
    JOINT LeftToe
    {
     OFFSET 0.000000 -6.787769 15.350800
     CHANNELS 3 Yrotation Xrotation Zrotation
     End Site
     {
      OFFSET 0.000000 -1.827230 7.796180
     }
    }
   }
  }
 }
}
MOTION
Frames: 8
Frame Time: 0.016667
-149.607693 100.931567 117.547400 96.326990 -2.670176 2.018009 2.542038 1.046143 -1.214935 1.188120 -5.367785 -0.548059 1.182992 0.451401 -0.427453 0.854714 6.174316 -0.323254 1.960750 14.445849 -0.082093 3.716003 -9.173743 -0.909396 -0.860563 -4.935241 -5.474013 24.618501 -58.303920 21.309419 20.047662 -47.250634 77.640414 -14.714261 -2.445385 -22.275727 -100.134736 -43.420019 12.090605 4.367830 -3.446408 1.229634 -14.225049 -57.774713 -29.812095 -42.284488 -48.588447 -49.297673 19.402544 -7.572195 23.217712 -3.749809 -0.576003 0.204449 1.336229 15.267008 -0.758716 -9.850897 -12.515009 -0.701381 0.000000 -0.000000 0.000000 2.506099 -18.552901 4.788621 2.376652 41.771288 0.380766 4.512877 -4.748727 -8.646785 0.012900 -0.652208 0.145551
-149.343112 100.979209 117.512458 96.251867 -2.530125 2.155086 2.521712 0.865336 -1.308368 1.182939 -5.448556 -0.588824 1.177667 0.370642 -0.468745 0.847544 6.113653 -0.354204 2.007137 14.485653 -0.083222 3.802578 -9.098563 -0.928061 -0.786219 -4.571029 -5.605589 28.320404 -58.738141 18.532366 18.557718 -47.396088 76.554033 -14.792622 -2.405631 -22.280592 -100.095687 -42.891971 11.894904 4.155066 -3.260433 1.305620 -17.802643 -58.964774 -26.854272 -40.835132 -47.916863 -48.209223 19.519432 -7.593053 23.062031 -3.963386 -0.406661 0.045740 1.283420 14.905626 -0.811794 -9.532102 -12.449349 -0.653068 0.000000 0.000000 0.000000 2.360866 -18.889415 4.664445 2.834709 39.900104 0.369140 4.310306 -5.235498 -8.483084 0.000000 0.000000 0.000000
-149.072322 101.021869 117.457731 96.167590 -2.394696 2.277676 2.511912 0.725479 -1.414050 1.183081 -5.511209 -0.635302 1.177681 0.307989 -0.515209 0.843985 6.066550 -0.389097 2.048439 14.450226 -0.060922 3.872518 -9.163960 -0.903223 -0.705140 -4.020983 -5.718463 31.644773 -59.464682 16.015242 18.032650 -47.485915 74.345426 -15.165686 -2.264373 -21.321991 -100.505302 -42.553566 12.272641 3.836767 -2.799787 1.359695 -21.352537 -60.119535 -23.788674 -40.103898 -47.360246 -46.396258 19.874930 -7.397563 22.211068 -4.060959 -0.235260 -0.122537 1.093803 14.556775 -0.832938 -9.187331 -12.403420 -0.667178 0.000000 0.000000 0.000000 2.243309 -19.021444 4.485427 2.753998 37.344294 0.149167 4.468511 -5.441945 -8.379494 -0.000859 0.259750 -0.049007
-148.790217 101.060550 117.380053 96.074051 -2.232857 2.388254 2.505961 0.595439 -1.525365 1.185170 -5.569529 -0.684365 1.179644 0.249664 -0.564061 0.841701 6.022685 -0.425797 2.086856 14.378425 -0.027645 3.933749 -9.297332 -0.857879 -0.613096 -3.377378 -5.813271 34.764870 -60.287878 13.621014 18.013471 -47.536156 71.615525 -15.637649 -2.059139 -19.952415 -101.089171 -42.269156 12.867405 3.476065 -2.180517 1.393081 -24.909829 -61.246491 -20.632124 -39.719655 -46.812548 -44.279151 20.323635 -7.088080 21.037782 -4.112075 -0.076681 -0.295411 0.848698 14.194106 -0.839868 -8.829876 -12.363359 -0.699861 0.000000 -0.000000 0.000000 2.095455 -18.986080 4.285702 2.480576 34.152871 -0.121719 4.766789 -5.380559 -8.275170 0.000486 0.129738 -0.025249
-148.475718 101.088916 117.271931 95.929723 -2.038875 2.482091 2.516869 0.446560 -1.621329 1.193904 -5.636201 -0.726509 1.188201 0.182974 -0.605319 0.844926 5.972554 -0.456744 2.125010 14.332170 -0.008873 3.999421 -9.382792 -0.838864 -0.492566 -2.847200 -5.880639 37.773115 -61.040636 11.273666 17.643958 -47.498319 69.560336 -15.913646 -1.919134 -19.165919 -101.437729 -41.868927 13.073188 3.194334 -1.627696 1.441268 -28.454092 -62.393542 -17.526915 -38.920424 -46.155599 -42.707133 20.627509 -6.871686 20.218701 -4.131754 0.074419 -0.459195 0.655930 13.822115 -0.850666 -8.522529 -12.349987 -0.681041 0.000000 0.000000 0.000000 1.820782 -18.834405 4.130810 2.500907 30.681466 -0.246459 4.860365 -4.777540 -7.993364 0.000000 0.000000 0.000000
-148.123784 101.105722 117.129684 95.704012 -1.803090 2.562810 2.557813 0.268875 -1.693473 1.214712 -5.715672 -0.757892 1.208739 0.103459 -0.634590 0.858034 5.912821 -0.478613 2.163762 14.333575 -0.023564 4.077926 -9.378584 -0.881391 -0.308779 -2.567344 -5.897004 40.602221 -61.679714 9.017930 16.368114 -47.346875 68.972592 -15.808192 -1.943449 -19.619687 -101.285721 -41.228650 12.452051 3.065346 -1.244877 1.523632 -31.933989 -63.750909 -14.612786 -37.256430 -45.246657 -42.207019 20.657367 -6.881204 20.181237 -4.096726 0.219808 -0.608579 0.539237 13.421568 -0.882901 -8.288966 -12.362126 -0.567372 0.000000 -0.000000 0.000000 1.352641 -18.549421 4.047281 3.012339 26.864798 -0.175525 4.493064 -3.163953 -7.380262 0.000000 0.000000 0.000000
-147.739457 101.112213 116.956993 95.427528 -1.535034 2.625760 2.615574 0.072403 -1.749986 1.242143 -5.803488 -0.782179 1.235842 0.015584 -0.656094 0.876646 5.846829 -0.494593 2.202611 14.360443 -0.052839 4.161540 -9.326540 -0.950467 -0.096984 -2.400895 -5.885159 43.266091 -62.274071 6.875800 14.751819 -47.144562 69.043391 -15.516487 -2.040717 -20.657062 -100.925593 -40.473758 11.465998 3.013996 -0.929183 1.625364 -35.472706 -65.171747 -11.681405 -35.247150 -44.246781 -42.171044 20.560086 -6.989969 20.498679 -4.030085 0.357764 -0.749444 0.474243 13.011332 -0.920476 -8.105690 -12.401027 -0.402181 0.000000 0.000000 -0.000000 0.758802 -18.148135 4.004505 3.762592 22.767311 -0.008284 3.923870 -0.994755 -6.669419 -0.000000 0.000000 -0.000000
-147.316786 101.105778 116.757409 95.150340 -1.257924 2.654003 2.663629 -0.141551 -1.794662 1.264595 -5.898988 -0.801047 1.257968 -0.079965 -0.672683 0.891893 5.775099 -0.506838 2.242369 14.408254 -0.065471 4.239793 -9.236150 -0.987804 0.055095 -2.144006 -5.905661 45.938057 -62.816069 4.778526 13.604461 -47.023744 68.590226 -15.352410 -2.084353 -21.304353 -100.764359 -39.825223 10.839646 2.937560 -0.595990 1.732617 -39.179179 -66.190774 -8.492232 -33.551979 -43.530110 -41.787506 20.533607 -7.022816 20.565598 -4.016192 0.487894 -0.884664 0.496059 12.652766 -0.933431 -7.964641 -12.491307 -0.245593 0.000000 0.000000 0.000000 0.145181 -17.732097 3.984325 4.537319 18.941483 0.183597 3.570170 0.606625 -6.218578 0.000000 0.000000 0.000000
